<svg width="49" height="50" viewBox="0 0 49 50" fill="none" xmlns="http://www.w3.org/2000/svg">
<path d="M28.275 42.25C25.875 44.75 23.125 47.325 20 50C6.675 38.625 0 28.8 0 20.5C0 8.05 9.5 0 20 0C30.475 0 39.975 8.025 40 20.425L45.225 15.2L48.75 18.75L37.5 30L26.25 18.75L29.775 15.225L35 20.425C34.975 11.375 28.35 5 20 5C11.625 5 5 11.425 5 20.5C5 26.35 9.875 34.1 20 43.35C21.6 41.875 23.075 40.45 24.425 39.075C24 38.225 23.75 37.275 23.75 36.275C23.75 32.825 26.55 30.025 30 30.025C33.45 30.025 36.25 32.825 36.25 36.275C36.25 39.725 33.45 42.5 30 42.5C29.4 42.5 28.825 42.425 28.275 42.25Z" fill="#B90B0B"/>
</svg>
